<svg xmlns="http://www.w3.org/2000/svg" xmlns:xlink="http://www.w3.org/1999/xlink" viewBox="0 0 428.05 348.22"><defs><style>.cls-1,.cls-16,.cls-17,.cls-18{fill:none;}.cls-2{fill:#e6eaf0;}.cls-3{fill:#42444f;}.cls-4{fill:#2c2c30;}.cls-5{fill:#35363b;}.cls-6{clip-path:url(#clip-path);}.cls-7{fill:#d9dfe6;}.cls-8{fill:#34909d;}.cls-9{fill:#f8b85e;}.cls-10{fill:#ba0034;}.cls-11{fill:#c8d0d9;}.cls-12{fill:#b3bdc7;}.cls-13{fill:#fff;}.cls-14{fill:#6f7082;}.cls-15{fill:#d9dde3;}.cls-16,.cls-17{stroke:#6f7082;}.cls-16,.cls-17,.cls-18{stroke-miterlimit:10;}.cls-16{stroke-width:1.27px;stroke-dasharray:2.3 1.15;}.cls-17{stroke-width:0.86px;stroke-dasharray:1.15 0.58;}.cls-18{stroke:#e6eaf0;}</style><clipPath id="clip-path"><rect class="cls-1" x="160.36" y="109.7" width="168.55" height="128.62"/></clipPath></defs><g id="Layer_2" data-name="Layer 2"><g id="Objects"><g id="cloud"><path class="cls-2" d="M166.78,76.38a14.93,14.93,0,0,0-4.93.86,24.06,24.06,0,0,0-14.41-17.46,54,54,0,0,0,.45-6.77A53,53,0,0,0,42.5,44.84,31,31,0,1,0,35.76,106h131a14.82,14.82,0,0,0,0-29.64Z"/></g><path class="cls-3" d="M255.48,252.39v32.45H211.3V252.39h15.63V268a6.47,6.47,0,1,0,12.94,0v-15.6Z"/><polygon class="cls-4" points="211.3 252.39 226.93 252.39 226.93 258.97 211.3 257.17 211.3 252.39"/><polygon class="cls-4" points="255.48 252.39 255.48 262.24 239.87 260.44 239.87 252.39 255.48 252.39"/><rect class="cls-5" x="180.55" y="284.48" width="105.69" height="4.4"/><path class="cls-5" d="M383.4,99V244a12,12,0,0,1-12,12h-276a12,12,0,0,1-12-12V99a12,12,0,0,1,12-12H371.42A12,12,0,0,1,383.4,99Z"/><rect class="cls-3" x="83.39" y="102.06" width="300.01" height="136.26"/><path class="cls-3" d="M237.62,247.07a4.23,4.23,0,1,1-4.22-4.23A4.22,4.22,0,0,1,237.62,247.07Z"/><g class="cls-6"><g id="Website"><path class="cls-5" d="M315.89,130.12,302.31,281a7.61,7.61,0,0,1-7.59,6.6H169.29a6.11,6.11,0,0,1-6.39-6.6l13.58-150.87a7.61,7.61,0,0,1,7.59-6.6H309.5A6.11,6.11,0,0,1,315.89,130.12Z"/><rect class="cls-7" x="162.32" y="113.89" width="139.41" height="173.7" rx="6.99"/><path class="cls-8" d="M290.16,121a2.58,2.58,0,1,0,2.57-2.57A2.57,2.57,0,0,0,290.16,121Z"/><path class="cls-9" d="M283,121a2.57,2.57,0,1,0,2.57-2.57A2.57,2.57,0,0,0,283,121Z"/><circle class="cls-10" cx="278.39" cy="121" r="2.57"/><rect class="cls-11" x="162.32" y="205.83" width="139.41" height="42.98"/><rect class="cls-12" x="286.84" y="128.26" width="7.49" height="3.07"/><rect class="cls-12" x="277.83" y="128.26" width="7.49" height="3.07"/><rect class="cls-12" x="268.81" y="128.26" width="7.49" height="3.07"/><rect class="cls-12" x="259.8" y="128.26" width="7.49" height="3.07"/><rect class="cls-13" x="169.86" y="140.92" width="124.34" height="42.05" rx="2.65"/><polygon class="cls-12" points="283.59 157.1 283.59 169.01 289.54 163.06 283.59 157.1"/><polygon class="cls-12" points="174.52 163.06 180.47 169.01 180.47 157.1 174.52 163.06"/><rect class="cls-13" x="202.4" y="186.41" width="91.8" height="2.19"/><rect class="cls-13" x="202.4" y="190.83" width="91.8" height="2.19"/><rect class="cls-13" x="202.4" y="195.24" width="62.23" height="2.19"/><rect class="cls-13" x="169.64" y="186.41" width="27.47" height="2.19"/><rect class="cls-13" x="169.64" y="190.91" width="27.47" height="2.19"/><rect class="cls-13" x="169.64" y="195.41" width="27.47" height="2.19"/><rect class="cls-13" x="169.64" y="199.91" width="17.27" height="2.19"/><rect class="cls-13" x="169.64" y="253.76" width="60.49" height="2.19"/><rect class="cls-13" x="169.64" y="258.26" width="60.49" height="2.19"/><rect class="cls-13" x="169.64" y="262.77" width="60.49" height="2.19"/><rect class="cls-13" x="169.64" y="267.27" width="38.02" height="2.19"/><rect class="cls-13" x="234.09" y="253.76" width="60.49" height="2.19"/><rect class="cls-13" x="234.09" y="258.26" width="59.68" height="2.19"/><rect class="cls-13" x="234.09" y="262.77" width="30.26" height="2.19"/><rect class="cls-13" x="169.55" y="209.49" width="27.67" height="34.82" rx="1.77"/><rect class="cls-13" x="201.92" y="209.49" width="27.67" height="34.82" rx="1.77"/><rect class="cls-13" x="234.29" y="209.49" width="27.67" height="34.82" rx="1.77"/><rect class="cls-13" x="266.65" y="209.49" width="27.67" height="34.82" rx="1.77"/><rect class="cls-7" x="177.58" y="235.63" width="16.68" height="2.16"/><rect class="cls-7" x="177.58" y="239.34" width="11.27" height="2.16"/><rect class="cls-7" x="209.62" y="235.63" width="16.68" height="2.16"/><rect class="cls-7" x="209.62" y="239.34" width="11.27" height="2.16"/><rect class="cls-7" x="241.66" y="235.63" width="16.68" height="2.16"/><rect class="cls-7" x="241.66" y="239.34" width="11.27" height="2.16"/><rect class="cls-7" x="273.71" y="235.63" width="16.68" height="2.16"/><rect class="cls-7" x="273.71" y="239.34" width="11.27" height="2.16"/><path class="cls-11" d="M301.73,274.22v6.38a7,7,0,0,1-7,7H169.31a7,7,0,0,1-7-7v-6.38Z"/><rect class="cls-12" x="210.67" y="277.17" width="43.13" height="2.35"/><rect class="cls-12" x="222.1" y="281.61" width="20.26" height="2.35"/></g></g><g id="Artwork_6" data-name="Artwork 6"><path class="cls-14" d="M148.6,286.9H112.25V225.05h27l9.33,9.32Z"/><rect class="cls-3" x="117.45" y="233.06" width="26" height="1.78"/><rect class="cls-3" x="117.45" y="237.48" width="26" height="1.78"/><rect class="cls-3" x="117.45" y="241.91" width="26" height="1.78"/><rect class="cls-3" x="117.45" y="246.33" width="26" height="1.78"/><rect class="cls-3" x="117.45" y="250.75" width="26" height="1.78"/><rect class="cls-3" x="117.45" y="255.17" width="15.3" height="1.78"/><rect class="cls-3" x="117.45" y="264.06" width="26" height="1.78"/><rect class="cls-3" x="117.45" y="268.49" width="26" height="1.78"/><rect class="cls-3" x="117.45" y="272.91" width="26" height="1.78"/><rect class="cls-3" x="117.45" y="277.33" width="15.3" height="1.78"/><path class="cls-5" d="M148.6,234.37h-9.33v-9.32h0l9.33,9.32Z"/><path class="cls-2" d="M136.89,297.6H100.55V235.75h27l9.32,9.33Z"/><rect class="cls-3" x="105.74" y="243.77" width="26" height="1.78"/><rect class="cls-3" x="105.74" y="248.19" width="26" height="1.78"/><rect class="cls-3" x="105.74" y="252.61" width="26" height="1.78"/><rect class="cls-3" x="105.74" y="257.03" width="26" height="1.78"/><rect class="cls-3" x="105.74" y="261.45" width="26" height="1.78"/><rect class="cls-3" x="105.74" y="265.87" width="15.3" height="1.78"/><rect class="cls-3" x="105.74" y="274.77" width="26" height="1.78"/><rect class="cls-3" x="105.74" y="279.19" width="26" height="1.78"/><rect class="cls-3" x="105.74" y="283.61" width="26" height="1.78"/><rect class="cls-3" x="105.74" y="288.03" width="15.3" height="1.78"/><path class="cls-15" d="M136.89,245.08h-9.32v-9.33h0l9.32,9.33Z"/></g><path class="cls-2" d="M93.53,210.16a23.36,23.36,0,0,1-41.66,14.52l-.36-.48a23.36,23.36,0,1,1,42-14Z"/><path class="cls-5" d="M87.8,223.6a22.52,22.52,0,0,1-35.26,0,18.13,18.13,0,0,1,14.75-13.73,7.65,7.65,0,1,1,5.77,0A18.11,18.11,0,0,1,87.8,223.6Z"/><path class="cls-3" d="M405.53,76a44.84,44.84,0,0,1-80,27.87l-.7-.92A44.84,44.84,0,1,1,405.53,76Z"/><path class="cls-2" d="M395.82,103.85a44.85,44.85,0,0,1-70.25,0A36.11,36.11,0,0,1,355,76.5a15.22,15.22,0,1,1,11.48,0A36.09,36.09,0,0,1,395.82,103.85Z"/><rect class="cls-2" x="316.35" y="226.2" width="87.9" height="54.74" rx="10.26"/><polygon class="cls-5" points="349.51 239.58 349.51 268.04 377.21 253.88 349.51 239.58"/><path class="cls-14" d="M182.87,59.3a1.61,1.61,0,0,1,0-2.29,20.71,20.71,0,0,0,0-29.25,1.62,1.62,0,1,1,2.29-2.29,23.94,23.94,0,0,1,0,33.83A1.62,1.62,0,0,1,182.87,59.3Z"/><path class="cls-14" d="M178.11,54.55a1.64,1.64,0,0,1,0-2.3,14,14,0,0,0,0-19.74,1.62,1.62,0,1,1,2.3-2.29,17.22,17.22,0,0,1,0,24.33A1.64,1.64,0,0,1,178.11,54.55Z"/><path class="cls-14" d="M173.46,49.89a1.61,1.61,0,0,1,0-2.29,7.39,7.39,0,0,0,0-10.43,1.62,1.62,0,0,1,2.29-2.29,10.62,10.62,0,0,1,0,15A1.62,1.62,0,0,1,173.46,49.89Z"/><circle class="cls-14" cx="168.24" cy="42.38" r="3.75"/><g id="Artwork_4" data-name="Artwork 4"><rect class="cls-5" x="63.38" y="111.77" width="65.93" height="59.66" rx="4.52"/><circle class="cls-8" cx="122.19" cy="117.49" r="2.29"/><circle class="cls-9" cx="115.39" cy="117.49" r="2.29"/><circle class="cls-10" cx="108.59" cy="117.49" r="2.29"/></g><path class="cls-13" d="M83.58,158.79h0a2.75,2.75,0,0,1-2.75-2.74V138.46a2.76,2.76,0,0,1,2.75-2.75h0a2.75,2.75,0,0,1,2.74,2.75v17.59A2.74,2.74,0,0,1,83.58,158.79Z"/><path class="cls-13" d="M109.12,158.79h0a2.75,2.75,0,0,1-2.75-2.74V138.46a2.76,2.76,0,0,1,2.75-2.75h0a2.75,2.75,0,0,1,2.74,2.75v17.59A2.74,2.74,0,0,1,109.12,158.79Z"/><path class="cls-13" d="M100.6,158.79h0a2.74,2.74,0,0,1-2.74-2.74V143.73A2.74,2.74,0,0,1,100.6,141h0a2.75,2.75,0,0,1,2.75,2.74v12.32A2.75,2.75,0,0,1,100.6,158.79Z"/><path class="cls-13" d="M92.09,158.79h0a2.74,2.74,0,0,1-2.74-2.74V129.31a2.74,2.74,0,0,1,2.74-2.74h0a2.74,2.74,0,0,1,2.74,2.74v26.74A2.74,2.74,0,0,1,92.09,158.79Z"/><path class="cls-13" d="M113.3,163.22H79.39a.81.81,0,0,1-.81-.81h0a.82.82,0,0,1,.81-.81H113.3a.81.81,0,0,1,.81.81h0A.81.81,0,0,1,113.3,163.22Z"/><g id="cloud-2" data-name="cloud"><path class="cls-2" d="M271,44.15a5.84,5.84,0,0,0-1.88.32,9.15,9.15,0,0,0-5.49-6.64,20.18,20.18,0,0,0-39.95-5.69,12,12,0,0,0-2.56-.28,11.79,11.79,0,1,0,0,23.57H271a5.64,5.64,0,0,0,0-11.28Z"/></g><g id="Text"><rect class="cls-14" x="231.76" y="64.22" width="8.71" height="1.94"/><rect class="cls-14" x="241.24" y="64.22" width="6.7" height="1.94"/><rect class="cls-14" x="248.66" y="64.22" width="5.32" height="1.94"/><rect class="cls-14" x="236.06" y="68.72" width="17.93" height="1.94"/><rect class="cls-14" x="231.76" y="68.72" width="3.29" height="1.94"/><rect class="cls-14" x="241.64" y="73.22" width="8.48" height="1.94"/><rect class="cls-14" x="250.93" y="73.22" width="3.06" height="1.94"/><rect class="cls-14" x="231.76" y="73.22" width="9.11" height="1.94"/><rect class="cls-14" x="238.15" y="77.72" width="7.39" height="1.94"/><rect class="cls-14" x="231.76" y="77.72" width="5.56" height="1.94"/></g><g id="Text-2" data-name="Text"><rect class="cls-2" y="143.81" width="17.18" height="3.84"/><rect class="cls-2" x="18.71" y="143.81" width="13.23" height="3.84"/><rect class="cls-2" x="33.35" y="143.81" width="10.5" height="3.84"/><rect class="cls-2" x="8.48" y="152.69" width="35.37" height="3.84"/><rect class="cls-2" y="152.69" width="6.5" height="3.84"/><rect class="cls-2" x="19.5" y="161.56" width="16.73" height="3.84"/><rect class="cls-2" x="37.81" y="161.56" width="6.04" height="3.84"/><rect class="cls-2" y="161.56" width="17.97" height="3.84"/><rect class="cls-2" x="12.6" y="170.43" width="14.57" height="3.84"/><rect class="cls-2" y="170.43" width="10.96" height="3.84"/></g><g id="Artwork_4-2" data-name="Artwork 4"><rect class="cls-5" x="343.94" y="146.76" width="84.11" height="59.66" rx="4.52"/><circle class="cls-8" cx="420.93" cy="152.49" r="2.29"/><circle class="cls-9" cx="414.13" cy="152.49" r="2.29"/><circle class="cls-10" cx="407.33" cy="152.49" r="2.29"/></g><polygon class="cls-14" points="355.13 192.15 354.44 191.46 369.39 176.5 378.52 185.64 398.34 165.81 407.93 175.4 415.2 168.12 415.9 168.82 407.93 176.79 398.34 167.21 378.52 187.03 369.39 177.9 355.13 192.15"/><circle class="cls-14" cx="354.77" cy="191.79" r="3.16"/><circle class="cls-14" cx="369.52" cy="177.52" r="3.16"/><circle class="cls-14" cx="378.58" cy="186.26" r="3.16"/><circle class="cls-14" cx="398.33" cy="166.67" r="3.16"/><circle class="cls-14" cx="407.92" cy="175.94" r="3.16"/><circle class="cls-14" cx="415.51" cy="168.35" r="3.16"/><g id="gear"><path class="cls-2" d="M358.69,148.71h0a1.45,1.45,0,0,1-.28-2.65h0a1.45,1.45,0,0,0-.87-2.7,1.45,1.45,0,0,1-1.33-2.3,1.45,1.45,0,0,0-1.9-2.11h0a1.45,1.45,0,0,1-2.15-1.56h0a1.45,1.45,0,0,0-2.6-1.16h0a1.45,1.45,0,0,1-2.6-.55h0a1.45,1.45,0,0,0-2.84,0h0a1.45,1.45,0,0,1-2.6.55h0a1.45,1.45,0,0,0-2.59,1.16h0a1.45,1.45,0,0,1-2.15,1.56,1.45,1.45,0,0,0-1.9,2.11h0a1.45,1.45,0,0,1-1.33,2.3h0a1.45,1.45,0,0,0-.88,2.7h0a1.45,1.45,0,0,1-.28,2.65h0a1.45,1.45,0,0,0,.3,2.82h0a1.45,1.45,0,0,1,.82,2.53,1.45,1.45,0,0,0,1.42,2.46h0a1.45,1.45,0,0,1,1.78,2h0a1.45,1.45,0,0,0,2.3,1.67h0a1.45,1.45,0,0,1,2.43,1.08h0a1.44,1.44,0,0,0,2.77.59,1.45,1.45,0,0,1,2.66,0,1.45,1.45,0,0,0,2.78-.59h0a1.45,1.45,0,0,1,2.43-1.08h0a1.45,1.45,0,0,0,2.3-1.67h0a1.44,1.44,0,0,1,1.77-2h0a1.45,1.45,0,0,0,1.42-2.46h0a1.45,1.45,0,0,1,.83-2.53h0A1.45,1.45,0,0,0,358.69,148.71Zm-13.15,8.17a8.27,8.27,0,1,1,8.27-8.27A8.26,8.26,0,0,1,345.54,156.88Z"/></g><line class="cls-16" x1="69.56" y1="82.53" x2="69.56" y2="106.8"/><path class="cls-14" d="M68.13,82.6A1.43,1.43,0,1,1,69.56,84,1.43,1.43,0,0,1,68.13,82.6Z"/><path class="cls-14" d="M68.13,106.73a1.43,1.43,0,1,0,1.43-1.43A1.43,1.43,0,0,0,68.13,106.73Z"/><polyline class="cls-16" points="130.71 61.48 158.68 61.48 203.16 105.96"/><path class="cls-14" d="M130.78,62.91a1.43,1.43,0,1,1,1.43-1.43A1.43,1.43,0,0,1,130.78,62.91Z"/><path class="cls-14" d="M202.1,106.92a1.43,1.43,0,1,0,0-2A1.42,1.42,0,0,0,202.1,106.92Z"/><polyline class="cls-16" points="249.87 242.92 270.92 263.97 314.87 263.97"/><path class="cls-14" d="M248.91,244a1.43,1.43,0,1,1,2,0A1.42,1.42,0,0,1,248.91,244Z"/><path class="cls-14" d="M314.8,265.4a1.43,1.43,0,1,0-1.43-1.43A1.43,1.43,0,0,0,314.8,265.4Z"/><polyline class="cls-16" points="68.52 236.53 68.52 258.33 82.42 272.23 97.39 272.23"/><path class="cls-14" d="M67.09,236.6A1.43,1.43,0,1,1,68.52,238,1.43,1.43,0,0,1,67.09,236.6Z"/><path class="cls-14" d="M97.32,273.66a1.43,1.43,0,1,0-1.43-1.43A1.43,1.43,0,0,0,97.32,273.66Z"/><path class="cls-16" d="M394.79,111.33l11.06,11.06a4.18,4.18,0,0,1,1.23,3V142.5"/><path class="cls-14" d="M393.83,112.39a1.43,1.43,0,1,1,2,0A1.44,1.44,0,0,1,393.83,112.39Z"/><path class="cls-14" d="M405.65,142.43a1.43,1.43,0,1,0,1.43-1.43A1.43,1.43,0,0,0,405.65,142.43Z"/><g id="Text-3" data-name="Text"><rect class="cls-3" x="273.88" y="310.79" width="14.63" height="3.27"/><rect class="cls-3" x="289.8" y="310.79" width="11.26" height="3.27"/><rect class="cls-3" x="302.26" y="310.79" width="8.94" height="3.27"/><rect class="cls-3" x="281.09" y="318.34" width="30.11" height="3.27"/><rect class="cls-3" x="273.88" y="318.34" width="5.53" height="3.27"/><rect class="cls-3" x="290.47" y="325.9" width="14.24" height="3.27"/><rect class="cls-3" x="306.07" y="325.9" width="5.14" height="3.27"/><rect class="cls-3" x="273.88" y="325.9" width="15.3" height="3.27"/><rect class="cls-3" x="284.6" y="333.45" width="12.4" height="3.27"/><rect class="cls-3" x="273.88" y="333.45" width="9.33" height="3.27"/></g><g id="Text-4" data-name="Text"><rect class="cls-3" x="228.86" y="310.79" width="14.63" height="3.27"/><rect class="cls-3" x="244.78" y="310.79" width="11.26" height="3.27"/><rect class="cls-3" x="257.25" y="310.79" width="8.94" height="3.27"/><rect class="cls-3" x="236.07" y="318.34" width="30.11" height="3.27"/><rect class="cls-3" x="228.86" y="318.34" width="5.53" height="3.27"/><rect class="cls-3" x="245.46" y="325.9" width="14.24" height="3.27"/><rect class="cls-3" x="261.05" y="325.9" width="5.14" height="3.27"/><rect class="cls-3" x="228.86" y="325.9" width="15.3" height="3.27"/><rect class="cls-3" x="239.59" y="333.45" width="12.4" height="3.27"/><rect class="cls-3" x="228.86" y="333.45" width="9.33" height="3.27"/></g><g id="transform"><rect class="cls-17" x="219.4" y="300.6" width="101.27" height="46.31"/><rect class="cls-14" x="218.08" y="299.29" width="2.63" height="2.63"/><rect class="cls-14" x="268.33" y="299.29" width="2.63" height="2.63"/><rect class="cls-14" x="319.35" y="299.29" width="2.63" height="2.63"/><rect class="cls-14" x="218.08" y="322.44" width="2.63" height="2.63"/><rect class="cls-14" x="319.35" y="322.44" width="2.63" height="2.63"/><rect class="cls-14" x="218.08" y="345.59" width="2.63" height="2.63"/><rect class="cls-14" x="268.33" y="345.59" width="2.63" height="2.63"/><rect class="cls-14" x="319.35" y="345.59" width="2.63" height="2.63"/></g><g id="_0" data-name="0"><path class="cls-14" d="M305.46,41.22h-1.12a1.14,1.14,0,0,1-1.13-1.13V39a1.15,1.15,0,0,0-.9-1.15,1.13,1.13,0,0,0-1.36,1.1v1.17a1.13,1.13,0,0,1-1.12,1.13h-1.12a1.16,1.16,0,0,0-1.16.9,1.14,1.14,0,0,0,1.11,1.36h1.17A1.12,1.12,0,0,1,301,44.6v1.12a1.17,1.17,0,0,0,.91,1.16,1.13,1.13,0,0,0,1.35-1.11V44.6a1.13,1.13,0,0,1,1.13-1.12h1.17a1.13,1.13,0,0,0,1.1-1.36A1.15,1.15,0,0,0,305.46,41.22Z"/></g><g id="_0-2" data-name="0"><path class="cls-2" d="M181.19,309.23h-1.93a1.92,1.92,0,0,1-1.93-1.93v-1.93a2,2,0,0,0-1.56-2,1.94,1.94,0,0,0-2.33,1.91v2a1.93,1.93,0,0,1-1.94,1.93h-1.93a2,2,0,0,0-2,1.56,2,2,0,0,0,1.91,2.34h2a1.93,1.93,0,0,1,1.94,1.93V317a2,2,0,0,0,1.55,2,2,2,0,0,0,2.34-1.91v-2a1.92,1.92,0,0,1,1.93-1.93h2a2,2,0,0,0,1.9-2.34A2,2,0,0,0,181.19,309.23Z"/></g><g id="_0-3" data-name="0"><path class="cls-14" d="M423.18,222.17h-1.25a1.24,1.24,0,0,1-1.24-1.25v-1.24a1.3,1.3,0,0,0-1-1.29,1.26,1.26,0,0,0-1.51,1.23v1.3a1.24,1.24,0,0,1-1.24,1.25h-1.25a1.29,1.29,0,0,0-1.28,1,1.26,1.26,0,0,0,1.23,1.51h1.3a1.24,1.24,0,0,1,1.24,1.25v1.24a1.3,1.3,0,0,0,1,1.29,1.27,1.27,0,0,0,1.51-1.23v-1.3a1.24,1.24,0,0,1,1.24-1.25h1.3a1.26,1.26,0,0,0,1.23-1.51A1.29,1.29,0,0,0,423.18,222.17Z"/></g><circle class="cls-2" cx="349.38" cy="298.53" r="4.3"/><circle class="cls-2" cx="350.64" cy="328.12" r="2.53"/><circle class="cls-18" cx="123.03" cy="313.46" r="3.03"/><circle class="cls-2" cx="162.99" cy="341.78" r="2.02"/><path class="cls-18" d="M36,238.6a3,3,0,1,1-3-3A3,3,0,0,1,36,238.6Z"/><circle class="cls-2" cx="28.45" cy="202.18" r="2.02"/><circle class="cls-2" cx="25.41" cy="120.75" r="3.03"/><circle class="cls-18" cx="209.27" cy="4.16" r="2.78"/><circle class="cls-2" cx="155.65" cy="12.76" r="2.78"/><circle class="cls-2" cx="292.73" cy="72.95" r="2.28"/><path class="cls-2" d="M304.61,280.83a2.78,2.78,0,1,1-2.78-2.78A2.77,2.77,0,0,1,304.61,280.83Z"/><path class="cls-2" d="M186.26,268.19a2.79,2.79,0,1,1-2.79-2.79A2.79,2.79,0,0,1,186.26,268.19Z"/><circle class="cls-14" cx="63.85" cy="296.26" r="4.05"/></g></g></svg>